# Blender v2.78 (sub 0) OBJ File: ''
# www.blender.org
mtllib ray.mtl
o Cylinder
v 0.033290 -0.000000 -0.012150
v 0.032627 -0.006500 -28.065968
v 0.033267 -0.000005 -28.065968
v 0.032650 -0.006495 -0.012150
v 0.030732 -0.012745 -28.065968
v 0.030756 -0.012740 -0.012150
v 0.027656 -0.018501 -28.065968
v 0.027679 -0.018496 -0.012150
v 0.023516 -0.023546 -28.065968
v 0.023539 -0.023541 -0.012150
v 0.018471 -0.027686 -28.065968
v 0.018494 -0.027681 -0.012150
v 0.012715 -0.030763 -28.065968
v 0.012738 -0.030758 -0.012150
v 0.006470 -0.032657 -28.065968
v 0.006493 -0.032652 -0.012150
v -0.000025 -0.033297 -28.065968
v -0.000002 -0.033292 -0.012150
v -0.006520 -0.032657 -28.065968
v -0.012742 -0.030758 -0.012150
v -0.012765 -0.030763 -28.065968
v -0.018521 -0.027686 -28.065968
v -0.023543 -0.023541 -0.012150
v -0.023566 -0.023546 -28.065968
v -0.027706 -0.018501 -28.065968
v -0.027683 -0.018496 -0.012150
v -0.030783 -0.012745 -28.065968
v -0.030759 -0.012740 -0.012150
v -0.032677 -0.006500 -28.065968
v -0.032654 -0.006495 -0.012150
v -0.033317 -0.000005 -28.065968
v -0.032654 0.006495 -0.012150
v -0.032677 0.006490 -28.065968
v -0.030783 0.012735 -28.065968
v -0.030759 0.012740 -0.012150
v -0.027706 0.018491 -28.065968
v -0.027683 0.018496 -0.012150
v -0.023566 0.023536 -28.065968
v -0.023543 0.023541 -0.012150
v -0.018521 0.027676 -28.065968
v -0.018498 0.027681 -0.012150
v -0.012765 0.030753 -28.065968
v -0.012742 0.030758 -0.012150
v -0.006520 0.032647 -28.065968
v -0.006497 0.032652 -0.012150
v -0.000025 0.033287 -28.065968
v -0.000002 0.033292 -0.012150
v 0.006470 0.032647 -28.065968
v 0.006493 0.032652 -0.012150
v 0.012715 0.030753 -28.065968
v 0.012738 0.030758 -0.012150
v 0.018471 0.027676 -28.065968
v 0.023539 0.023541 -0.012150
v 0.023516 0.023536 -28.065968
v 0.027656 0.018491 -28.065968
v 0.027679 0.018496 -0.012150
v 0.030732 0.012735 -28.065968
v 0.030756 0.012740 -0.012150
v 0.032627 0.006490 -28.065968
v 0.032650 0.006495 -0.012150
v -0.006497 -0.032652 -0.012150
v -0.018498 -0.027681 -0.012150
v -0.033294 -0.000000 -0.012150
v 0.018494 0.027681 -0.012150
vn 0.9952 -0.0981 -0.0000
vn 0.9570 -0.2902 -0.0000
vn 0.9569 -0.2904 -0.0000
vn 0.8819 -0.4714 -0.0000
vn 0.8820 -0.4713 -0.0000
vn 0.7730 -0.6344 -0.0000
vn 0.6344 -0.7730 -0.0000
vn 0.4714 -0.8819 -0.0000
vn 0.2902 -0.9570 -0.0000
vn 0.0981 -0.9952 0.0000
vn -0.0981 -0.9952 0.0000
vn -0.2902 -0.9570 0.0000
vn -0.4714 -0.8819 0.0000
vn -0.6344 -0.7730 0.0000
vn -0.7730 -0.6344 0.0000
vn -0.8820 -0.4713 0.0000
vn -0.8819 -0.4714 0.0000
vn -0.9569 -0.2904 0.0000
vn -0.9570 -0.2902 0.0000
vn -0.9952 -0.0981 0.0000
vn -0.9952 0.0981 0.0000
vn -0.9569 0.2904 0.0000
vn -0.9570 0.2902 0.0000
vn -0.8820 0.4713 0.0000
vn -0.8819 0.4714 0.0000
vn -0.7730 0.6344 0.0000
vn -0.6344 0.7730 0.0000
vn -0.4714 0.8819 0.0000
vn -0.2902 0.9570 0.0000
vn -0.0981 0.9952 -0.0000
vn 0.0981 0.9952 -0.0000
vn 0.2902 0.9570 -0.0000
vn 0.4714 0.8819 -0.0000
vn 0.6344 0.7730 -0.0000
vn 0.7730 0.6344 -0.0000
vn 0.8819 0.4714 -0.0000
vn 0.8820 0.4713 -0.0000
vn 0.0000 0.0000 1.0000
vn 0.9570 0.2902 -0.0000
vn 0.9569 0.2904 -0.0000
vn 0.9952 0.0981 -0.0000
vn -0.0000 0.0000 -1.0000
vn -0.0001 0.0000 -1.0000
vn 0.0001 0.0000 -1.0000
vn -0.0036 -0.0000 -1.0000
vn 0.0021 0.0000 -1.0000
vn 0.0144 0.0000 -0.9999
vn 0.0002 0.0000 -1.0000
vn -0.0018 -0.0000 -1.0000
vn 0.0003 -0.0000 -1.0000
vn -0.0045 -0.0000 -1.0000
vn -0.0006 0.0000 -1.0000
vn 0.0036 -0.0000 -1.0000
vn 0.0015 -0.0000 -1.0000
vn -0.0072 -0.0000 -1.0000
vn 0.0013 0.0000 -1.0000
vn 0.0018 0.0000 -1.0000
vn -0.0009 0.0000 -1.0000
vn 0.0009 0.0000 -1.0000
vn -0.0092 -0.0000 -1.0000
vn 0.0072 -0.0000 -1.0000
usemtl Material.001
s 1
f 1//1 2//1 3//1
f 4//2 5//3 2//3
f 6//4 7//5 5//5
f 8//6 9//6 7//6
f 10//7 11//7 9//7
f 12//8 13//8 11//8
f 14//9 15//9 13//9
f 16//10 17//10 15//10
f 18//11 19//11 17//11
f 19//12 20//12 21//12
f 20//13 22//13 21//13
f 22//14 23//14 24//14
f 23//15 25//15 24//15
f 26//16 27//17 25//17
f 28//18 29//19 27//19
f 30//20 31//20 29//20
f 31//21 32//21 33//21
f 32//22 34//23 33//23
f 35//24 36//25 34//25
f 37//26 38//26 36//26
f 39//27 40//27 38//27
f 41//28 42//28 40//28
f 43//29 44//29 42//29
f 45//30 46//30 44//30
f 47//31 48//31 46//31
f 49//32 50//32 48//32
f 51//33 52//33 50//33
f 52//34 53//34 54//34
f 53//35 55//35 54//35
f 56//36 57//37 55//37
f 35//38 20//38 6//38
f 58//39 59//40 57//40
f 60//41 3//41 59//41
f 29//42 44//43 59//44
f 1//1 4//1 2//1
f 4//2 6//2 5//3
f 6//4 8//4 7//5
f 8//6 10//6 9//6
f 10//7 12//7 11//7
f 12//8 14//8 13//8
f 14//9 16//9 15//9
f 16//10 18//10 17//10
f 18//11 61//11 19//11
f 19//12 61//12 20//12
f 20//13 62//13 22//13
f 22//14 62//14 23//14
f 23//15 26//15 25//15
f 26//16 28//16 27//17
f 28//18 30//18 29//19
f 30//20 63//20 31//20
f 31//21 63//21 32//21
f 32//22 35//22 34//23
f 35//24 37//24 36//25
f 37//26 39//26 38//26
f 39//27 41//27 40//27
f 41//28 43//28 42//28
f 43//29 45//29 44//29
f 45//30 47//30 46//30
f 47//31 49//31 48//31
f 49//32 51//32 50//32
f 51//33 64//33 52//33
f 52//34 64//34 53//34
f 53//35 56//35 55//35
f 56//36 58//36 57//37
f 6//38 4//38 1//38
f 1//38 60//38 6//38
f 58//38 56//38 53//38
f 53//38 64//38 51//38
f 51//38 49//38 47//38
f 47//38 45//38 51//38
f 43//38 41//38 35//38
f 39//38 37//38 35//38
f 35//38 32//38 28//38
f 63//38 30//38 28//38
f 28//38 26//38 20//38
f 23//38 62//38 20//38
f 20//38 61//38 14//38
f 18//38 16//38 14//38
f 14//38 12//38 6//38
f 10//38 8//38 6//38
f 6//38 60//38 58//38
f 58//38 53//38 6//38
f 51//38 45//38 43//38
f 41//38 39//38 35//38
f 32//38 63//38 28//38
f 26//38 23//38 20//38
f 61//38 18//38 14//38
f 12//38 10//38 6//38
f 6//38 53//38 51//38
f 51//38 43//38 35//38
f 35//38 28//38 20//38
f 20//38 14//38 6//38
f 6//38 51//38 35//38
f 58//39 60//39 59//40
f 60//41 1//41 3//41
f 59//44 3//45 2//46
f 2//46 5//47 7//48
f 7//48 9//49 11//50
f 11//50 13//51 15//42
f 15//42 17//42 19//43
f 19//43 21//49 22//52
f 22//52 24//53 25//54
f 25//54 27//55 29//42
f 29//42 31//42 33//56
f 33//56 34//55 36//52
f 36//52 38//57 40//58
f 40//58 42//59 44//43
f 44//43 46//42 48//44
f 48//44 50//57 52//42
f 52//42 54//52 59//44
f 55//60 57//61 59//44
f 59//44 2//46 7//48
f 7//48 11//50 15//42
f 15//42 19//43 29//42
f 22//52 25//54 29//42
f 29//42 33//56 36//52
f 36//52 40//58 29//42
f 44//43 48//44 59//44
f 54//52 55//60 59//44
f 59//44 7//48 15//42
f 19//43 22//52 29//42
f 29//42 40//58 44//43
f 48//44 52//42 59//44
f 59//44 15//42 29//42
